La Bella y la Bestia (1991).Ed Esp.2010.Spanish.720p.Audio Latino AC3.BDrip-rucucu

Beauty and the Beast (1991).Spanish Audio ONLY.
IMDB: 
http://www.imdb.com/title/tt0101414/

La Bella y la Bestia (1991). Original restaurado digitalmente, Edición Especial 2010. HD, 720p. BDrip, Resolución 1280 x 770p, 23,976 fps (16:9), contenedor MKV, video AVC x 264 tomado de "paradox 4hrg" (Thanks!!), audio en Español neutral o Audio Latino AC3 (stereo) o 6 canales en su caso, 48.o HZ, 384 Kbps, proveniente de rip propio sincronizado con el video.
Excelente calidad y poco peso!!!  

Especificaciones Técnicas:
General
Complete name                    : 
La Bella y la Bestia (1991).Ed Esp.2010.Spanish.720p.Audio Latino AC3.BDrip-rucucu.mkv
Format                           : Matroska
File size                        : 895 MiB
Duration                         : 1h 31mn
Overall bit rate                 : 1 364 Kbps
Encoded date                     : UTC 2011-04-29 19:55:51
Writing application              : mkvmerge v4.5.0 ('Speed of Light') creado el Feb  1 2011 02:10:32
Writing library                  : libebml v1.2.0 + libmatroska v1.1.0

Video
ID                               : 1
Format                           : AVC
Format/Info                      : Advanced Video Codec
Format profile                   : Main@L3.1
Format settings, CABAC           : Yes
Format settings, ReFrames        : 2 frames
Muxing mode                      : Header stripping
Codec ID                         : V_MPEG4/ISO/AVC
Duration                         : 1h 31mn
Bit rate                         : 979 Kbps
Width                            : 1 280 pixels
Height                           : 720 pixels
Display aspect ratio             : 16:9
Frame rate                       : 23.976 fps
Color space                      : YUV
Chroma subsampling               : 4:2:0
Bit depth                        : 8 bits
Scan type                        : Progressive
Bits/(Pixel*Frame)               : 0.044
Stream size                      : 625 MiB (70%)
Writing library                  : x264 core 79
Color primaries                  : BT.709-5, BT.1361, IEC 61966-2-4, SMPTE RP177
Transfer characteristics         : BT.709-5, BT.1361
Matrix coefficients              : BT.709-5, BT.1361, IEC 61966-2-4 709, SMPTE RP177

Audio
ID                               : 2
Format                           : AC-3
Format/Info                      : Audio Coding 3
Mode extension                   : CM (complete main)
Muxing mode                      : Header stripping
Codec ID                         : A_AC3
Duration                         : 1h 31mn
Bit rate mode                    : Constant
Bit rate                         : 384 Kbps
Channel(s)                       : 6 channels
Channel positions                : Front: L C R, Side: L R, LFE
Sampling rate                    : 48.0 KHz
Bit depth                        : 16 bits
Stream size                      : 252 MiB (28%

